<svg width="24" height="24" viewBox="0 0 24 24" fill="none" xmlns="http://www.w3.org/2000/svg">
<path d="M12.0001 19.8C11.1001 19.8 10.2001 19.6 9.20008 19.3C8.80008 19.2 8.60008 18.7 8.80008 18.3C8.90008 17.9 9.40008 17.7 9.80008 17.9C10.6001 18.2 11.3001 18.3 12.0001 18.3C12.4001 18.3 12.8001 18.6 12.8001 19.1C12.8001 19.6 12.4001 19.8 12.0001 19.8Z" fill="#999999"/>
<path d="M12.0001 19.8C11.6001 19.8 11.2001 19.5 11.2001 19C11.2001 18.5 11.5001 18.2 12.0001 18.2C14.9001 18.2 18.3001 15.7 20.2001 12.1C20.4001 11.7 20.9001 11.6 21.2001 11.8C21.6001 12 21.7001 12.5 21.5001 12.8C19.7001 16.3 16.0001 19.8 12.0001 19.8Z" fill="#999999"/>
<path d="M20.9001 13.2C20.8001 13.2 20.7001 13.2 20.5001 13.1C20.1001 12.9 20.0001 12.4 20.2001 12.1C20.2001 12 20.2001 11.9 20.2001 11.9C19.7001 11 19.2001 10.2 18.5001 9.4C18.2001 9.1 18.3001 8.60001 18.6001 8.30001C18.9001 8.00001 19.4001 8.1 19.7001 8.4C20.4001 9.3 21.1001 10.2 21.6001 11.1C21.9001 11.6 21.9001 12.2 21.6001 12.7C21.4001 13.1 21.1001 13.2 20.9001 13.2Z" fill="#999999"/>
<path d="M5.00009 19.8C4.80009 19.8 4.60009 19.7 4.50009 19.6C4.20009 19.3 4.20009 18.8 4.50009 18.5L18.5001 4.49996C18.8001 4.19996 19.3001 4.19996 19.6001 4.49996C19.9001 4.79996 19.9001 5.29996 19.6001 5.59996L5.60009 19.6C5.40009 19.7 5.20009 19.8 5.00009 19.8Z" fill="#999999"/>
<path d="M9.79991 15C9.59991 15 9.39991 14.9 9.29991 14.8C8.49991 14 8.09991 13 8.09991 12C8.09991 11 8.49991 9.99998 9.19991 9.19998C10.6999 7.69998 13.1999 7.69998 14.6999 9.19998C14.9999 9.49998 14.9999 9.99998 14.6999 10.3C14.3999 10.6 13.8999 10.6 13.5999 10.3C12.6999 9.39998 11.0999 9.39998 10.1999 10.3C9.69991 10.8 9.49991 11.4 9.49991 12C9.49991 12.6 9.69991 13.2 10.1999 13.7C10.4999 14 10.4999 14.5 10.1999 14.8C10.1999 14.9 9.99991 15 9.79991 15Z" fill="#999999"/>
<path d="M7.00005 17.8C6.80005 17.8 6.70005 17.7 6.50005 17.6C4.90005 16.4 3.50005 14.7 2.50005 12.8C2.20005 12.3 2.20005 11.7 2.50005 11.2C4.30005 7.70001 8.00005 4.20001 12.0001 4.20001C13.8001 4.20001 15.7001 4.90001 17.5001 6.30001C17.8001 6.60001 17.9001 7.00001 17.6001 7.40001C17.3001 7.70001 16.9001 7.80001 16.5001 7.50001C15.0001 6.30001 13.4001 5.70001 11.9001 5.70001C9.00005 5.70001 5.60005 8.20001 3.70005 11.8C3.70005 11.9 3.70005 12 3.70005 12C4.60005 13.7 5.90005 15.2 7.30005 16.3C7.60005 16.6 7.70005 17 7.40005 17.4C7.40005 17.7 7.20005 17.8 7.00005 17.8Z" fill="#999999"/>
</svg>
