<svg width="24" height="24" viewBox="0 0 24 24" fill="none" xmlns="http://www.w3.org/2000/svg">
<path d="M12.0001 19.8C8.00005 19.8 4.30005 16.3 2.50005 12.9C2.20005 12.4 2.20005 11.8 2.50005 11.3C4.30005 7.70001 8.00005 4.20001 12.0001 4.20001C16.0001 4.20001 19.7001 7.70001 21.5001 11.1C21.8001 11.6 21.8001 12.2 21.5001 12.7C19.7001 16.3 16.0001 19.8 12.0001 19.8ZM3.80005 12.1C5.80005 15.7 9.10005 18.2 12.0001 18.2C14.9001 18.2 18.3001 15.7 20.2001 12.1C20.2001 12 20.2001 11.9 20.2001 11.9C18.2001 8.30001 14.9001 5.80001 12.0001 5.80001C9.10005 5.80001 5.70005 8.30001 3.80005 11.9C3.70005 12 3.70005 12 3.80005 12.1Z" fill="#999999"/>
<path d="M12 15.7C11 15.7 10.1 15.3 9.40001 14.6C8.00001 13.2 8.00001 10.8 9.40001 9.3C10.8 7.9 13.3 7.9 14.7 9.3C15.4 10 15.8 10.9 15.8 11.9C15.8 12.9 15.4 13.8 14.7 14.5C13.9 15.3 13 15.7 12 15.7ZM12 9.7C11.4 9.7 10.8 9.9 10.4 10.4C9.50001 11.3 9.50001 12.7 10.4 13.6C11.3 14.5 12.8 14.5 13.6 13.6C14 13.2 14.3 12.6 14.3 12C14.3 11.4 14.1 10.8 13.6 10.4C13.2 10 12.6 9.7 12 9.7Z" fill="#999999"/>
</svg>
